<svg width="17" height="17" viewBox="0 0 17 17" fill="none" xmlns="http://www.w3.org/2000/svg">
<path d="M11.5052 2.66154C12.3022 3.45857 12.75 4.53958 12.75 5.66675C12.75 10.6251 14.875 12.0417 14.875 12.0417H2.125C2.125 12.0417 4.25 10.6251 4.25 5.66675C4.25 4.53958 4.69777 3.45857 5.4948 2.66154C6.29183 1.86451 7.37283 1.41675 8.5 1.41675C9.62717 1.41675 10.7082 1.86451 11.5052 2.66154Z" stroke="#FF7D33" stroke-width="2" stroke-linecap="round" stroke-linejoin="round"/>
<path d="M9.72543 14.875C9.6009 15.0897 9.42215 15.2679 9.20709 15.3918C8.99203 15.5156 8.7482 15.5808 8.50001 15.5808C8.25183 15.5808 8.008 15.5156 7.79294 15.3918C7.57787 15.2679 7.39913 15.0897 7.2746 14.875" stroke="#FF7D33" stroke-width="2" stroke-linecap="round" stroke-linejoin="round"/>
</svg>
