<svg width="30" height="28" viewBox="0 0 30 28" fill="none" xmlns="http://www.w3.org/2000/svg">
<path d="M0 21C0 22.7181 1.4925 24.1111 3.33333 24.1111H26.6667C28.5075 24.1111 30 22.7181 30 21V17.8889H0V21Z" fill="#138808"/>
<path d="M0 10.1111H30V17.8889H0V10.1111Z" fill="#EEEEEE"/>
<path d="M30 10.1111V7.00003C30 5.28192 28.5075 3.88892 26.6667 3.88892H3.33333C1.4925 3.88892 0 5.28192 0 7.00003V10.1111H30Z" fill="#FF9933"/>
<path d="M15 17.1111C16.8409 17.1111 18.3333 15.7182 18.3333 14C18.3333 12.2818 16.8409 10.8889 15 10.8889C13.159 10.8889 11.6666 12.2818 11.6666 14C11.6666 15.7182 13.159 17.1111 15 17.1111Z" fill="#000080"/>
<path d="M15 16.3333C16.3807 16.3333 17.5 15.2886 17.5 14C17.5 12.7113 16.3807 11.6666 15 11.6666C13.6193 11.6666 12.5 12.7113 12.5 14C12.5 15.2886 13.6193 16.3333 15 16.3333Z" fill="#EEEEEE"/>
<path d="M15 11.6666L15.1217 13.4275L15.9558 11.8447L15.3475 13.5146L16.7675 12.3495L15.52 13.6756L17.3092 13.1071L15.6133 13.8864L17.5 14L15.6133 14.1135L17.3092 14.8921L15.52 14.3243L16.7675 15.6496L15.3475 14.4853L15.9558 16.1552L15.1217 14.5724L15 16.3333L14.8783 14.5724L14.0433 16.1552L14.6525 14.4853L13.2317 15.6496L14.48 14.3243L12.6908 14.8921L14.3867 14.1135L12.5 14L14.3867 13.8864L12.6908 13.1071L14.48 13.6756L13.2317 12.3495L14.6525 13.5146L14.0433 11.8447L14.8783 13.4275L15 11.6666Z" fill="#6666B3"/>
<path d="M15 14.7779C15.4602 14.7779 15.8333 14.4296 15.8333 14.0001C15.8333 13.5705 15.4602 13.2223 15 13.2223C14.5397 13.2223 14.1666 13.5705 14.1666 14.0001C14.1666 14.4296 14.5397 14.7779 15 14.7779Z" fill="#000080"/>
</svg>
