<svg width="24" height="24" viewBox="0 0 24 24" fill="none" xmlns="http://www.w3.org/2000/svg">
<g clip-path="url(#clip0_1740_3356)">
<path d="M19.1264 17.5C19.1264 19.1552 17.7471 20.5345 16.0919 20.5345H13.5172" stroke="#7C7C7C" stroke-width="2" stroke-miterlimit="10"/>
<path d="M12.7815 22.6495C13.8988 22.6495 14.8045 21.7438 14.8045 20.6265C14.8045 19.5092 13.8988 18.6035 12.7815 18.6035C11.6643 18.6035 10.7585 19.5092 10.7585 20.6265C10.7585 21.7438 11.6643 22.6495 12.7815 22.6495Z" fill="#7C7C7C"/>
<path d="M4.87358 8.8567C2.66668 8.8567 0.919556 10.6038 0.919556 12.8107C0.919556 15.0176 2.66668 16.7648 4.87358 16.7648V9.59234C4.87358 5.63831 8.09197 2.41992 12.046 2.41992C16 2.41992 19.2184 5.63831 19.2184 9.59234V16.7648C21.4253 16.7648 23.1724 15.0176 23.1724 12.8107C23.1724 10.6038 21.3333 8.8567 19.1265 8.8567" stroke="#FF7D33" stroke-width="2" stroke-miterlimit="10"/>
</g>
<defs>
<clipPath id="clip0_1740_3356">
<rect width="24" height="24" fill="white"/>
</clipPath>
</defs>
</svg>
