<svg width="24" height="24" viewBox="0 0 24 24" fill="none" xmlns="http://www.w3.org/2000/svg">
<path d="M11.8596 21.2304C12.0633 21.2304 12.1651 21.2304 12.3688 21.2304C13.3871 20.9249 17.0532 19.4993 19.1917 14.9167C20.7192 11.7598 21.1266 7.89012 21.2284 6.15893C21.2284 5.64976 20.9229 5.24242 20.4137 5.24242C19.3954 5.14059 17.6642 4.93692 15.8312 4.02041C14.5073 3.30756 13.5908 2.49289 12.9798 1.88188C12.4706 1.37271 11.6559 1.37271 11.2486 1.88188C10.6376 2.39105 9.72108 3.20573 8.39723 3.91857C6.56421 4.93692 4.83302 5.14059 3.81468 5.24242C3.3055 5.24242 3 5.64976 3 6.15893C3.10183 7.89012 3.61101 11.7598 5.03669 14.9167C7.17522 19.4993 10.9431 20.9249 11.8596 21.2304Z" stroke="#FF7D33" stroke-width="2" stroke-miterlimit="10"/>
<path d="M16.9514 8.60156L11.3505 13.286L8.0918 10.5364" stroke="#7C7C7C" stroke-width="1.6" stroke-miterlimit="10" stroke-linecap="round"/>
</svg>
