<svg width="24" height="24" viewBox="0 0 24 24" fill="none" xmlns="http://www.w3.org/2000/svg">
<path d="M18.6114 21.3782H5.5544C4.72539 21.3782 4 20.6528 4 19.8238V3.5544C4 2.72539 4.72539 2 5.5544 2H18.6114C19.4404 2 20.1658 2.72539 20.1658 3.5544V19.8238C20.1658 20.7564 19.4404 21.3782 18.6114 21.3782Z" stroke="#FF7D33" stroke-width="2.07254" stroke-miterlimit="10"/>
<path d="M9.28493 8.839C9.28493 9.12516 9.05295 9.35714 8.7668 9.35714C8.48064 9.35714 8.24866 9.12516 8.24866 8.839C8.24866 8.55284 8.48064 8.32087 8.7668 8.32087C9.05295 8.32087 9.28493 8.55284 9.28493 8.839Z" fill="#B8B8D2" stroke="#7C7C7C" stroke-width="1.03627"/>
<path d="M11.6684 8.83984H15.9171" stroke="#7C7C7C" stroke-width="2.07254" stroke-miterlimit="10"/>
<path d="M9.28493 14.5392C9.28493 14.8254 9.05295 15.0573 8.7668 15.0573C8.48064 15.0573 8.24866 14.8254 8.24866 14.5392C8.24866 14.253 8.48064 14.0211 8.7668 14.0211C9.05295 14.0211 9.28493 14.253 9.28493 14.5392Z" fill="#B8B8D2" stroke="#7C7C7C" stroke-width="1.03627"/>
<path d="M11.6684 14.5391H15.9171" stroke="#7C7C7C" stroke-width="2.07254" stroke-miterlimit="10"/>
</svg>
