<svg width="18" height="21" viewBox="0 0 18 21" fill="none" xmlns="http://www.w3.org/2000/svg">
<path d="M13.5 4.75C13.5 3.85999 13.2361 2.98996 12.7416 2.24994C12.2471 1.50991 11.5443 0.933138 10.7221 0.592544C9.89981 0.25195 8.99501 0.162835 8.12209 0.336468C7.24918 0.510102 6.44736 0.938685 5.81802 1.56802C5.18868 2.19736 4.7601 2.99918 4.58647 3.8721C4.41283 4.74501 4.50195 5.64981 4.84254 6.47208C5.18314 7.29434 5.75991 7.99715 6.49993 8.49162C7.23995 8.98608 8.10998 9.25 9 9.25C10.1931 9.24869 11.3369 8.77417 12.1805 7.93054C13.0242 7.08691 13.4987 5.94307 13.5 4.75ZM6 4.75C6 4.15666 6.17595 3.57664 6.50559 3.08329C6.83524 2.58994 7.30377 2.20543 7.85195 1.97836C8.40013 1.7513 9.00333 1.69189 9.58527 1.80765C10.1672 1.9234 10.7018 2.20912 11.1213 2.62868C11.5409 3.04824 11.8266 3.58279 11.9424 4.16473C12.0581 4.74667 11.9987 5.34987 11.7716 5.89805C11.5446 6.44623 11.1601 6.91477 10.6667 7.24441C10.1734 7.57406 9.59334 7.75 9 7.75C8.20461 7.74917 7.44203 7.43283 6.8796 6.8704C6.31717 6.30797 6.00083 5.5454 6 4.75ZM11.25 10.75H6.75C4.9604 10.752 3.24466 11.4638 1.97922 12.7292C0.713781 13.9947 0.00198514 15.7104 0 17.5V18.25C0.000655109 18.8465 0.237918 19.4185 0.659733 19.8403C1.08155 20.2621 1.65346 20.4993 2.25 20.5H15.75C16.3465 20.4993 16.9185 20.2621 17.3403 19.8403C17.7621 19.4185 17.9993 18.8465 18 18.25V17.5C17.998 15.7104 17.2862 13.9947 16.0208 12.7292C14.7553 11.4638 13.0396 10.752 11.25 10.75ZM16.5 18.25C16.4998 18.4489 16.4207 18.6395 16.2801 18.7801C16.1395 18.9207 15.9489 18.9998 15.75 19H2.25C2.05114 18.9998 1.86048 18.9207 1.71987 18.7801C1.57925 18.6395 1.50018 18.4489 1.5 18.25V17.5C1.50161 16.1081 2.05525 14.7737 3.03946 13.7895C4.02368 12.8052 5.35811 12.2516 6.75 12.25H11.25C12.6419 12.2516 13.9763 12.8052 14.9605 13.7895C15.9448 14.7737 16.4984 16.1081 16.5 17.5V18.25Z" fill="#CACACA"/>
</svg>
