<svg width="24" height="24" viewBox="0 0 24 24" fill="none" xmlns="http://www.w3.org/2000/svg">
<g clip-path="url(#clip0_1740_3353)">
<path d="M12.5104 0.947266C13.3254 0.947266 14.0632 1.39987 14.4707 2.068C14.6689 2.39129 14.8011 2.79002 14.7681 3.21029C14.746 3.53358 14.8451 3.85687 15.0214 4.15861C15.583 5.07459 16.8275 5.41944 17.7966 4.90217C18.8869 4.27715 20.2635 4.65432 20.8912 5.72117L21.6291 6.99278C22.2679 8.05963 21.9154 9.42823 20.8142 10.0425C19.8781 10.5921 19.5477 11.8098 20.1093 12.7366C20.2855 13.0275 20.4838 13.2754 20.7921 13.4262C21.1776 13.631 21.4749 13.9543 21.6842 14.2776C22.0917 14.9457 22.0586 15.7647 21.6622 16.4867L20.8912 17.7799C20.4838 18.4696 19.7239 18.9006 18.942 18.9006C18.5565 18.9006 18.127 18.7928 17.7746 18.5773C17.4883 18.3941 17.1579 18.3295 16.8054 18.3295C15.7152 18.3295 14.8011 19.2239 14.7681 20.2908C14.7681 21.53 13.7549 22.4999 12.4884 22.4999H10.9906C9.71312 22.4999 8.69993 21.53 8.69993 20.2908C8.6779 19.2239 7.76383 18.3295 6.67355 18.3295C6.31012 18.3295 5.97973 18.3941 5.70441 18.5773C5.352 18.7928 4.91148 18.9006 4.53704 18.9006C3.74411 18.9006 2.98422 18.4696 2.57674 17.7799L1.81684 16.4867C1.40937 15.7863 1.38734 14.9457 1.79482 14.2776C1.97103 13.9543 2.30141 13.631 2.67585 13.4262C2.98422 13.2754 3.18245 13.0275 3.36967 12.7366C3.92032 11.8098 3.58993 10.5921 2.65383 10.0425C1.56355 9.42823 1.21113 8.05963 1.83887 6.99278L2.57674 5.72117C3.21549 4.65432 4.58109 4.27715 5.68238 4.90217C6.64051 5.41944 7.88497 5.07459 8.44663 4.15861C8.62284 3.85687 8.72195 3.53358 8.69993 3.21029C8.6779 2.79002 8.79905 2.39129 9.00829 2.068C9.41577 1.39987 10.1536 0.968818 10.9576 0.947266H12.5104Z" stroke="#FF7D33" stroke-width="2"/>
<path d="M11.6713 15.6787C13.8842 15.6787 15.6781 13.8848 15.6781 11.6719C15.6781 9.45896 13.8842 7.66504 11.6713 7.66504C9.45835 7.66504 7.66443 9.45896 7.66443 11.6719C7.66443 13.8848 9.45835 15.6787 11.6713 15.6787Z" stroke="#7C7C7C" stroke-width="1.6" stroke-miterlimit="10"/>
</g>
<defs>
<clipPath id="clip0_1740_3353">
<rect width="24" height="24" fill="white"/>
</clipPath>
</defs>
</svg>
