<svg width="393" height="393" viewBox="0 0 393 393" fill="none" xmlns="http://www.w3.org/2000/svg">
<g clip-path="url(#clip0_9375_44489)">
<rect x="-23" width="465" height="393" fill="#D9D9D9"/>
<path fill-rule="evenodd" clip-rule="evenodd" d="M219.521 257.039C205.493 267.563 186.196 267.563 172.168 257.039C137.383 231.006 116.922 190.115 116.922 146.681V136.827C116.922 93.295 152.26 58 195.844 58C239.429 58 274.766 93.295 274.766 136.827V146.681C274.766 190.115 254.306 231.006 219.521 257.039ZM353.689 393.016H38L48.9307 349.385C54.5145 327.058 69.5886 308.277 90.1873 297.99L120.434 282.895C124.755 280.707 128.484 277.653 131.7 274.164C136.968 279.268 142.552 284.136 148.471 288.59C162.263 298.896 178.639 304.336 195.844 304.336C213.049 304.336 229.426 298.896 243.198 288.59C249.136 284.136 254.7 279.268 259.988 274.164C263.204 277.653 266.914 280.707 271.254 282.895L301.482 297.99C322.08 308.277 337.174 327.058 342.758 349.385L353.689 393.016Z" fill="#C0C0C0"/>
</g>
<defs>
<clipPath id="clip0_9375_44489">
<rect width="393" height="393" fill="white"/>
</clipPath>
</defs>
</svg>
