<svg width="26" height="26" viewBox="0 0 26 26" fill="none" xmlns="http://www.w3.org/2000/svg">
<path d="M24.2267 12.6133C24.2267 18.7237 19.5098 23.7442 13.5067 24.1909C13.203 24.2088 12.917 24.2267 12.6133 24.2267C6.19915 24.2267 1 19.0274 1 12.6133C1 8.23598 3.41196 4.43036 6.9853 2.4472C8.64699 1.53598 10.5586 1 12.6133 1C19.0275 1 24.2267 6.19915 24.2267 12.6133Z" fill="#FFECCF" stroke="#6E798C" stroke-width="2" stroke-miterlimit="10" stroke-linecap="round" stroke-linejoin="round"/>
<path d="M11.55 12.5C12.9861 12.5 14.15 11.3361 14.15 9.90005C14.15 8.46396 12.9861 7.30005 11.55 7.30005C10.1139 7.30005 8.95 8.46396 8.95 9.90005C8.95 11.3361 10.1139 12.5 11.55 12.5ZM13.37 13.15H13.0308C12.5798 13.3572 12.0781 13.475 11.55 13.475C11.0219 13.475 10.5222 13.3572 10.0692 13.15H9.73C8.22281 13.15 7 14.3729 7 15.88V16.725C7 17.2633 7.43672 17.7 7.975 17.7H13.5589C13.5102 17.5619 13.4898 17.4157 13.5061 17.2674L13.6442 16.0304L13.6686 15.8049L13.8291 15.6444L15.3992 14.0743C14.9016 13.5116 14.1805 13.15 13.37 13.15ZM14.2902 16.1015L14.152 17.3405C14.1297 17.5477 14.3044 17.7224 14.5095 17.698L15.7466 17.5599L18.5477 14.7588L17.0913 13.3024L14.2902 16.1015ZM19.8578 12.7621L19.088 11.9922C18.8991 11.8033 18.5903 11.8033 18.4014 11.9922L17.6336 12.76L17.5503 12.8433L19.0088 14.2997L19.8578 13.4507C20.0467 13.2597 20.0467 12.953 19.8578 12.7621Z" fill="#FF7D33"/>
</svg>
